<svg width="256" height="98" viewBox="0 0 256 98" fill="none" xmlns="http://www.w3.org/2000/svg">
<path d="M55.3441 21.1255H36.8961V97.9945H55.3441V21.1255Z" fill="black"/>
<path d="M36.8961 77.2554H18.4481V98H36.8961V77.2554Z" fill="black"/>
<path d="M0 77.2498H18.448V0.380859H0V77.2498Z" fill="black"/>
<path d="M18.448 21.1256H36.896V0.380859H18.448V21.1256Z" fill="black"/>
<path d="M70.4987 28.5767L67.8045 0.352539H73.1528L74.0718 13.2654L74.6026 23.9219H76.2694L76.2009 13.2654L78.6838 0.528713H86.1955L88.6783 13.2654L88.6099 23.9219H90.2766L90.8074 13.2654L91.7264 0.352539H97.0751L94.3806 28.5767H84.991L83.6782 20.7108L83.2501 5.01301H81.6177L81.1953 20.7108L79.8825 28.5767H70.4929H70.4987Z" fill="black"/>
<path fill-rule="evenodd" clip-rule="evenodd" d="M100.995 27.2864C102.206 28.3833 104.181 28.9289 106.921 28.9289C109.615 28.9289 111.567 28.3776 112.777 27.2864C113.987 26.1952 114.632 24.3765 114.718 21.836C114.781 20.5174 114.82 19.2557 114.843 18.0508C114.866 16.8459 114.877 15.6523 114.877 14.4701C114.877 13.288 114.866 12.0888 114.843 10.8725C114.82 9.65623 114.775 8.3832 114.718 7.0532C114.632 4.52979 113.987 2.71676 112.777 1.63117C111.567 0.545692 109.66 0 106.921 0C104.181 0 102.206 0.545692 100.995 1.63117C99.7857 2.71676 99.1462 4.5241 99.0891 7.0532C99.0671 8.37183 99.0495 9.63917 99.0386 10.8554C99.0265 12.0774 99.021 13.2709 99.021 14.4474C99.021 15.624 99.0265 16.8175 99.0386 18.0281C99.0495 19.2386 99.0671 20.506 99.0891 21.836C99.1528 24.3765 99.7857 26.1952 100.995 27.2864ZM108.81 24.0469C108.422 24.4333 107.795 24.6266 106.921 24.6266C106.053 24.6266 105.426 24.4333 105.031 24.0469C104.638 23.6604 104.427 23.0181 104.404 22.1258C104.347 20.8357 104.301 19.5512 104.272 18.2724C104.243 16.9936 104.227 15.7205 104.227 14.4531C104.227 13.1857 104.243 11.9126 104.272 10.6281C104.301 9.34369 104.347 8.06486 104.404 6.78047C104.427 5.8938 104.638 5.26292 105.031 4.88214C105.431 4.50136 106.042 4.30812 106.921 4.30812C107.8 4.30812 108.427 4.50136 108.81 4.88214C109.192 5.2686 109.392 5.89949 109.404 6.78047C109.46 8.06486 109.512 9.34937 109.546 10.6281C109.581 11.9069 109.598 13.18 109.598 14.4531C109.598 15.7262 109.581 16.9993 109.546 18.2724C109.512 19.5455 109.46 20.83 109.404 22.1258C109.392 23.0181 109.192 23.6604 108.81 24.0469Z" fill="black"/>
<path fill-rule="evenodd" clip-rule="evenodd" d="M118.063 0.352539V28.5767H123.377V19.0512H124.935L127.629 28.5767H133.263L129.935 18.1702C130.917 17.653 131.637 16.9085 132.105 15.931C132.572 14.9533 132.829 13.7031 132.875 12.1741C132.898 11.5148 132.914 10.9408 132.92 10.4464C132.927 9.9519 132.927 9.4575 132.92 8.96299C132.914 8.46858 132.898 7.89446 132.875 7.23525C132.789 4.77428 132.161 3.01243 130.985 1.94959C129.809 0.886748 127.898 0.352539 125.255 0.352539H118.063ZM125.255 14.3964H123.377V5.0187H125.255C125.997 5.0187 126.561 5.1835 126.938 5.51878C127.321 5.85418 127.526 6.33153 127.56 6.95672C127.595 7.53074 127.617 8.13318 127.629 8.76406C127.64 9.39495 127.64 10.0201 127.629 10.651C127.617 11.2819 127.595 11.8843 127.56 12.4584C127.521 13.0665 127.315 13.5438 126.938 13.8849C126.561 14.2259 125.997 14.3964 125.255 14.3964Z" fill="black"/>
<path d="M136.025 28.5767V0.352539H141.694L141.625 7.19545L141.02 13.5098H142.333L144.034 7.19545L146.585 0.352539H152.396L147.681 11.9582L152.607 28.5767H147.218L143.993 17.2893L141.442 22.2282V28.5767H136.02H136.025Z" fill="black"/>
<path d="M154.627 28.5767V0.352539H167.596V5.00732H159.942V11.8843H167.242V16.539H159.942V23.9106H167.596V28.5653H154.627V28.5767Z" fill="black"/>
<path fill-rule="evenodd" clip-rule="evenodd" d="M170.358 0.352539V28.5767H175.673V19.0512H177.231L179.925 28.5767H185.558L182.231 18.1702C183.213 17.653 183.932 16.9085 184.4 15.931C184.868 14.9533 185.124 13.7031 185.171 12.1741C185.194 11.5148 185.21 10.9408 185.217 10.4464C185.222 9.9519 185.222 9.4575 185.217 8.96299C185.21 8.46858 185.194 7.89446 185.171 7.23525C185.085 4.77428 184.457 3.01243 183.282 1.94959C182.105 0.886748 180.193 0.352539 177.551 0.352539H170.358ZM177.551 14.3964H175.673V5.0187H177.551C178.292 5.0187 178.858 5.1835 179.234 5.51878C179.616 5.85418 179.822 6.33153 179.857 6.95672C179.891 7.53074 179.914 8.13318 179.925 8.76406C179.936 9.39495 179.936 10.0201 179.925 10.651C179.914 11.2819 179.891 11.8843 179.857 12.4584C179.816 13.0665 179.611 13.5438 179.234 13.8849C178.858 14.2259 178.292 14.3964 177.551 14.3964Z" fill="black"/>
<path d="M204.269 28.929C201.849 28.929 200.119 28.4402 199.081 27.4626C198.043 26.4851 197.471 24.8824 197.362 22.6487C197.351 22.2111 197.351 21.8133 197.362 21.4382C197.374 21.0631 197.385 20.8243 197.396 20.7049H202.146C202.111 21.387 202.1 21.9099 202.111 22.2736C202.123 22.6374 202.134 22.9613 202.146 23.2455C202.18 23.8821 202.374 24.3254 202.728 24.5868C203.083 24.8482 203.596 24.9732 204.269 24.9732C205.086 24.9732 205.679 24.8369 206.05 24.5697C206.422 24.297 206.61 23.848 206.61 23.2114V22.0804C206.61 21.728 206.513 21.4211 206.318 21.1653C206.124 20.904 205.782 20.7163 205.302 20.6027L202.643 19.932C201.495 19.6365 200.519 19.2614 199.708 18.7953C198.898 18.3292 198.282 17.7439 197.859 17.0392C197.437 16.3344 197.22 15.4649 197.22 14.4304V13.4415C197.22 11.1624 197.768 9.52557 198.87 8.53665C199.971 7.54774 201.849 7.05322 204.521 7.05322C206.929 7.05322 208.653 7.53068 209.686 8.47979C210.719 9.43469 211.29 11.0033 211.398 13.1914C211.421 13.4245 211.427 13.7882 211.416 14.2769C211.405 14.7657 211.387 15.0727 211.364 15.2034H206.438C206.45 14.9703 206.461 14.6804 206.467 14.3395C206.472 13.9985 206.472 13.6689 206.467 13.3449C206.461 13.0209 206.45 12.7708 206.438 12.5947C206.404 12.032 206.25 11.6228 205.976 11.3784C205.702 11.134 205.223 11.009 204.521 11.009C203.778 11.009 203.259 11.134 202.968 11.3784C202.677 11.6228 202.522 12.032 202.5 12.5947C202.5 12.6288 202.494 12.7367 202.483 12.9129C202.472 13.0891 202.466 13.4415 202.466 13.9701C202.466 14.4646 202.574 14.851 202.785 15.1238C202.997 15.4023 203.39 15.6012 203.955 15.7319L206.295 16.2605C208.053 16.647 209.384 17.2608 210.274 18.1019C211.164 18.9431 211.61 20.1764 211.61 21.7962V22.7851C211.61 24.9732 211.044 26.5419 209.909 27.4968C208.773 28.4516 206.895 28.9233 204.275 28.9233L204.269 28.929Z" fill="black"/>
<path fill-rule="evenodd" clip-rule="evenodd" d="M71.663 34.8853L67.7303 63.1094H73.1814L73.7864 57.2156H78.6039L79.2089 63.1094H84.6657L80.733 34.8853H71.663ZM78.1073 52.5609H74.283H74.2773L74.9166 46.3147L75.3446 39.54H77.0456L77.468 46.3147L78.1073 52.5609Z" fill="black"/>
<path d="M87.0802 63.1094V34.8853H92.3942V58.4547H99.3748V63.1094H87.0802Z" fill="black"/>
<path d="M109.078 63.4621C107.269 63.4621 105.803 63.2234 104.677 62.7459C103.548 62.2686 102.708 61.5126 102.16 60.4726C101.613 59.4325 101.304 58.0628 101.247 56.3691C101.213 55.3802 101.184 54.2549 101.167 52.9931C101.15 51.7313 101.138 50.4242 101.138 49.0828C101.138 47.7416 101.15 46.4514 101.167 45.2011C101.184 43.9564 101.213 42.8537 101.247 41.9046C101.315 40.1542 101.629 38.7333 102.178 37.6534C102.726 36.5735 103.564 35.7835 104.695 35.2834C105.825 34.7832 107.286 34.5332 109.078 34.5332C111.688 34.5332 113.587 35.0788 114.781 36.1643C115.974 37.2499 116.647 39.0629 116.801 41.5864C116.835 42.1263 116.853 42.7686 116.853 43.5187C116.853 44.2689 116.835 44.9169 116.801 45.4681H111.488C111.522 44.6895 111.538 43.9393 111.538 43.2118C111.538 42.4843 111.522 41.7285 111.488 40.9555C111.441 40.1939 111.23 39.6483 110.859 39.3244C110.489 39.0003 109.894 38.8412 109.078 38.8412C108.263 38.8412 107.611 39.0003 107.229 39.3244C106.846 39.6483 106.624 40.1939 106.567 40.9555C106.498 42.1889 106.441 43.4846 106.407 44.8429C106.373 46.2014 106.356 47.5825 106.356 48.9806C106.356 50.3787 106.373 51.7598 106.407 53.1181C106.441 54.4764 106.498 55.7723 106.567 57.0056C106.624 57.7843 106.846 58.3355 107.229 58.6652C107.611 58.9948 108.228 59.1596 109.078 59.1596C109.929 59.1596 110.609 58.9948 111.019 58.6652C111.425 58.3355 111.664 57.7843 111.738 57.0056C111.761 56.7328 111.779 56.4089 111.784 56.0281C111.79 55.6473 111.79 55.2664 111.784 54.88C111.779 54.4992 111.761 54.1696 111.738 53.9024H109.792V49.3159H116.915C116.973 50.3844 116.996 51.5609 116.984 52.834C116.973 54.1127 116.938 55.2892 116.876 56.3691C116.756 58.9095 116.094 60.7283 114.884 61.8195C113.673 62.9107 111.738 63.4621 109.085 63.4621H109.078Z" fill="black"/>
<path fill-rule="evenodd" clip-rule="evenodd" d="M121.613 61.8195C122.823 62.9164 124.798 63.4621 127.538 63.4621C130.232 63.4621 132.184 62.9107 133.394 61.8195C134.604 60.7283 135.249 58.9095 135.335 56.3691C135.398 55.0506 135.437 53.7888 135.46 52.5839C135.483 51.379 135.494 50.1855 135.494 49.0033C135.494 47.8211 135.483 46.6219 135.46 45.4056C135.437 44.1894 135.392 42.9163 135.335 41.5864C135.249 39.0629 134.604 37.2499 133.394 36.1643C132.184 35.0788 130.277 34.5332 127.538 34.5332C124.798 34.5332 122.823 35.0788 121.613 36.1643C120.403 37.2499 119.763 39.0572 119.706 41.5864C119.683 42.9049 119.667 44.1724 119.655 45.3886C119.644 46.6106 119.638 47.8041 119.638 48.9806C119.638 50.157 119.644 51.3506 119.655 52.5612C119.667 53.7717 119.683 55.0392 119.706 56.3691C119.769 58.9095 120.403 60.7283 121.613 61.8195ZM129.427 58.5799C129.039 58.9664 128.411 59.1596 127.538 59.1596C126.67 59.1596 126.042 58.9664 125.648 58.5799C125.255 58.1935 125.043 57.5512 125.021 56.659C124.964 55.3688 124.918 54.0843 124.889 52.8056C124.861 51.5267 124.844 50.2536 124.844 48.9863C124.844 47.7188 124.861 46.4457 124.889 45.1613C124.918 43.8768 124.964 42.598 125.021 41.3136C125.043 40.4269 125.255 39.796 125.648 39.4152C126.048 39.0344 126.659 38.8412 127.538 38.8412C128.417 38.8412 129.045 39.0344 129.427 39.4152C129.809 39.8017 130.009 40.4326 130.02 41.3136C130.077 42.598 130.129 43.8825 130.163 45.1613C130.197 46.44 130.215 47.7131 130.215 48.9863C130.215 50.2593 130.197 51.5324 130.163 52.8056C130.129 54.0786 130.077 55.3631 130.02 56.659C130.009 57.5512 129.809 58.1935 129.427 58.5799Z" fill="black"/>
<path fill-rule="evenodd" clip-rule="evenodd" d="M138.685 34.8853V63.1094H144V53.5839H145.558L148.252 63.1094H153.885L150.557 52.703C151.54 52.1858 152.259 51.4413 152.726 50.4637C153.194 49.4862 153.451 48.2358 153.498 46.7069C153.521 46.0477 153.537 45.4736 153.543 44.9791C153.549 44.4846 153.549 43.9902 153.543 43.4957C153.537 43.0013 153.521 42.4273 153.498 41.768C153.412 39.307 152.783 37.5451 151.608 36.4823C150.432 35.4196 148.52 34.8853 145.878 34.8853H138.685ZM145.878 48.9291H144V39.5514H145.878C146.619 39.5514 147.184 39.7162 147.561 40.0516C147.943 40.3869 148.149 40.8642 148.183 41.4894C148.218 42.0636 148.24 42.666 148.252 43.2968C148.263 43.9277 148.263 44.5529 148.252 45.1837C148.24 45.8146 148.218 46.4171 148.183 46.9911C148.143 47.5992 147.938 48.0767 147.561 48.4176C147.184 48.7586 146.619 48.9291 145.878 48.9291Z" fill="black"/>
<path d="M156.648 63.1094V34.8853H161.962V63.1094H156.648Z" fill="black"/>
<path d="M168.818 63.1094V39.54H163.908V34.8853H179.041V39.54H174.131V63.1094H168.818Z" fill="black"/>
<path d="M180.986 63.1094V34.8853H186.301V46.4228H190.73V34.8853H196.044V63.1094H190.73V51.0775H186.301V63.1094H180.986Z" fill="black"/>
<path d="M199.588 63.1094V34.8853H209.189L211.53 45.5759L211.992 58.4547H213.624L214.047 45.5759L216.421 34.8853H225.988V63.1094H220.497V54.4307L221.524 39.54H219.857L218.367 54.7831L215.993 63.1094H209.4L207.237 54.7831L205.713 39.54H204.081L205.075 54.4307V63.1094H199.583H199.588Z" fill="black"/>
<path fill-rule="evenodd" clip-rule="evenodd" d="M70.4872 96.3519C71.6973 97.4487 73.6722 97.9944 76.4121 97.9944C79.1061 97.9944 81.0583 97.4433 82.2684 96.3519C83.4784 95.2605 84.1234 93.4419 84.2091 90.9014C84.2719 89.5828 84.3119 88.3211 84.3346 87.1162C84.3574 85.9113 84.3689 84.7178 84.3689 83.5356C84.3689 82.3534 84.3574 81.1542 84.3346 79.9379C84.3119 78.7217 84.2661 77.4486 84.2091 76.1186C84.1234 73.5952 83.4784 71.7822 82.2684 70.6966C81.0583 69.6111 79.1518 69.0654 76.4121 69.0654C73.6722 69.0654 71.6973 69.6111 70.4872 70.6966C69.2772 71.7822 68.6379 73.5895 68.5808 76.1186C68.558 77.4373 68.5409 78.7046 68.5295 79.9209C68.518 81.1428 68.5123 82.3363 68.5123 83.5129C68.5123 84.6894 68.518 85.8829 68.5295 87.0935C68.5409 88.3041 68.558 89.5714 68.5808 90.9014C68.6436 93.4419 69.2772 95.2605 70.4872 96.3519ZM78.3014 93.1123C77.9132 93.4987 77.2854 93.692 76.4121 93.692C75.5445 93.692 74.9166 93.4987 74.5228 93.1123C74.1289 92.7258 73.9177 92.0836 73.8948 91.1912C73.8378 89.9011 73.7921 88.6166 73.7636 87.3379C73.7351 86.0591 73.7179 84.7859 73.7179 83.5186C73.7179 82.2512 73.7351 80.978 73.7636 79.6936C73.7921 78.4091 73.8378 77.1303 73.8948 75.8459C73.9177 74.9592 74.1289 74.3283 74.5228 73.9476C74.9223 73.5668 75.5331 73.3736 76.4121 73.3736C77.2911 73.3736 77.9189 73.5668 78.3014 73.9476C78.6838 74.334 78.8836 74.9649 78.895 75.8459C78.9521 77.1303 79.0034 78.4148 79.0377 79.6936C79.072 80.9723 79.0891 82.2455 79.0891 83.5186C79.0891 84.7916 79.072 86.0648 79.0377 87.3379C79.0034 88.6109 78.9521 89.8954 78.895 91.1912C78.8836 92.0836 78.6838 92.7258 78.3014 93.1123Z" fill="black"/>
<path fill-rule="evenodd" clip-rule="evenodd" d="M87.5539 97.6369V69.418H94.8201C97.4629 69.418 99.3979 69.9522 100.613 71.015C101.829 72.0779 102.44 73.8397 102.44 76.3007V77.2555C102.44 77.5624 102.428 77.8693 102.406 78.1705C102.321 79.455 102.035 80.4723 101.538 81.2282C101.042 81.9842 100.271 82.5411 99.2155 82.8935V83.7404C100.3 84.0927 101.099 84.6553 101.606 85.4226C102.115 86.1956 102.394 87.2413 102.44 88.5713C102.463 88.9578 102.474 89.3158 102.474 89.6454C102.474 89.9751 102.463 90.3445 102.44 90.7594C102.332 93.2033 101.698 94.9653 100.534 96.0337C99.3693 97.1021 97.4629 97.6369 94.8201 97.6369H87.5539ZM92.8679 80.9555H94.8144C95.5564 80.9555 96.1272 80.6997 96.5268 80.1881C96.9201 79.6766 97.1201 78.9549 97.1201 78.0284V76.0165C97.1201 75.3913 96.9201 74.9139 96.5268 74.5785C96.1329 74.2432 95.5621 74.0784 94.8144 74.0784H92.8679V80.9555ZM94.8144 92.9874H92.8679V92.9817V85.6101H94.8144C95.6305 85.6101 96.218 85.8546 96.5784 86.3434C96.9377 86.8321 97.1201 87.6562 97.1201 88.8214V90.6912C97.1201 91.4357 96.9201 92.0041 96.5268 92.3963C96.1272 92.7884 95.5564 92.9874 94.8144 92.9874Z" fill="black"/>
<path d="M112.64 97.9945C109.98 97.9945 108.057 97.4489 106.864 96.352C105.671 95.2606 105.02 93.4422 104.917 90.9018C104.906 90.5267 104.9 90.1118 104.9 89.6571C104.9 89.2024 104.911 88.7534 104.935 88.2987C104.958 87.844 104.997 87.4291 105.06 87.054H110.055C110.009 87.9123 109.98 88.7591 109.964 89.5945C109.951 90.43 109.98 91.1916 110.055 91.885C110.112 92.459 110.362 92.908 110.807 93.2149C111.253 93.5275 111.863 93.681 112.64 93.681C113.371 93.681 113.953 93.5275 114.375 93.2149C114.798 92.9023 115.049 92.459 115.118 91.885C115.163 91.4871 115.197 91.0893 115.215 90.6915C115.231 90.2993 115.231 89.9015 115.215 89.5093C115.197 89.1172 115.163 88.7193 115.118 88.3158C115.072 87.8213 114.855 87.3667 114.478 86.9575C114.101 86.5483 113.628 86.2811 113.062 86.1617L109.803 85.4229C108.565 85.1388 107.583 84.7011 106.864 84.0987C106.144 83.4962 105.626 82.7516 105.306 81.8594C104.986 80.967 104.809 79.9326 104.774 78.7561C104.763 78.239 104.758 77.7786 104.758 77.3694C104.758 76.9602 104.763 76.5453 104.774 76.1076C104.843 74.4254 105.158 73.067 105.71 72.0326C106.264 70.9982 107.109 70.2424 108.234 69.7649C109.364 69.2874 110.83 69.0488 112.635 69.0488C115.277 69.0488 117.195 69.5944 118.382 70.68C119.57 71.7655 120.215 73.5785 120.323 76.102C120.346 76.6078 120.351 77.2273 120.335 77.9548C120.317 78.6823 120.289 79.3586 120.255 79.9838H115.152C115.186 79.171 115.209 78.3583 115.22 77.5512C115.231 76.7385 115.22 75.9257 115.186 75.1187C115.175 74.556 114.946 74.1184 114.501 73.8115C114.055 73.5046 113.433 73.3512 112.635 73.3512C111.892 73.3512 111.299 73.5046 110.854 73.8115C110.409 74.1184 110.151 74.5504 110.083 75.1187C110.014 75.7211 109.975 76.3236 109.975 76.9374C109.975 77.5512 110.009 78.1537 110.083 78.7561C110.14 79.2279 110.305 79.6599 110.58 80.052C110.854 80.4442 111.288 80.7056 111.892 80.8363L114.763 81.4388C116.099 81.723 117.178 82.1719 117.994 82.7857C118.816 83.4052 119.421 84.1782 119.81 85.1046C120.197 86.031 120.42 87.1052 120.466 88.3158C120.478 88.5885 120.483 88.8671 120.483 89.1627C120.483 89.4581 120.478 89.7537 120.466 90.0435C120.455 90.3391 120.442 90.6175 120.431 90.8904C120.323 93.4309 119.672 95.2497 118.462 96.3411C117.258 97.4325 115.317 97.9836 112.635 97.9836L112.64 97.9945Z" fill="black"/>
<path d="M123.394 97.6424V69.418H136.362V74.0728H128.708V80.9498H136.009V85.6046H128.708V92.976H136.362V97.6303H123.394V97.6424Z" fill="black"/>
<path fill-rule="evenodd" clip-rule="evenodd" d="M139.125 69.418V97.6424H144.439V88.1166H145.997L148.692 97.6424H154.325L150.997 87.2356C151.979 86.7185 152.699 85.974 153.167 84.9963C153.634 84.0188 153.891 82.7685 153.937 81.2396C153.96 80.5803 153.977 80.0062 153.982 79.5118C153.989 79.0173 153.989 78.5229 153.982 78.0284C153.977 77.534 153.96 76.96 153.937 76.3007C153.851 73.8397 153.223 72.0779 152.047 71.015C150.872 69.9522 148.96 69.418 146.317 69.418H139.125ZM146.317 83.4618H144.439V74.0841H146.317C147.059 74.0841 147.624 74.2489 148 74.5842C148.383 74.9196 148.588 75.397 148.622 76.0222C148.658 76.5962 148.68 77.1986 148.692 77.8295C148.703 78.4604 148.703 79.0856 148.692 79.7165C148.68 80.3473 148.658 80.9498 148.622 81.5238C148.583 82.1319 148.377 82.6093 148 82.9504C147.624 83.2913 147.059 83.4618 146.317 83.4618Z" fill="black"/>
<path d="M159.958 97.6424L155.849 69.418H161.341L163.429 83.5642L163.749 92.9817H165.45L165.77 83.5642L167.858 69.418H173.35L169.24 97.6424H159.958Z" fill="black"/>
<path fill-rule="evenodd" clip-rule="evenodd" d="M177.106 69.418L173.172 97.6424H178.624L179.228 91.7484H184.046L184.651 97.6424H190.108L186.175 69.418H177.106ZM183.55 87.0936H179.725H179.72L180.359 80.8474L180.781 74.0728H182.482L182.91 80.8474L183.55 87.0936Z" fill="black"/>
<path d="M194.486 97.6424V74.0728H189.578V69.418H204.709V74.0728H199.801V97.6424H194.486Z" fill="black"/>
<path fill-rule="evenodd" clip-rule="evenodd" d="M207.962 96.3519C209.172 97.4487 211.147 97.9944 213.887 97.9944C216.581 97.9944 218.533 97.4433 219.743 96.3519C220.954 95.2605 221.599 93.4419 221.685 90.9014C221.747 89.5828 221.787 88.3211 221.81 87.1162C221.833 85.9113 221.844 84.7178 221.844 83.5356C221.844 82.3534 221.833 81.1542 221.81 79.9379C221.787 78.7217 221.742 77.4486 221.685 76.1186C221.599 73.5952 220.954 71.7822 219.743 70.6966C218.533 69.6111 216.627 69.0654 213.887 69.0654C211.147 69.0654 209.172 69.6111 207.962 70.6966C206.752 71.7822 206.113 73.5895 206.056 76.1186C206.033 77.4373 206.016 78.7046 206.004 79.9209C205.993 81.1428 205.988 82.3363 205.988 83.5129C205.988 84.6894 205.993 85.8829 206.004 87.0935C206.016 88.3041 206.033 89.5714 206.056 90.9014C206.118 93.4419 206.752 95.2605 207.962 96.3519ZM215.777 93.1123C215.389 93.4987 214.76 93.692 213.887 93.692C213.02 93.692 212.391 93.4987 211.998 93.1123C211.603 92.7258 211.392 92.0836 211.369 91.1912C211.312 89.9011 211.267 88.6166 211.239 87.3379C211.21 86.0591 211.192 84.7859 211.192 83.5186C211.192 82.2512 211.21 80.978 211.239 79.6936C211.267 78.4091 211.312 77.1303 211.369 75.8459C211.392 74.9592 211.603 74.3283 211.998 73.9476C212.398 73.5668 213.008 73.3736 213.887 73.3736C214.766 73.3736 215.394 73.5668 215.777 73.9476C216.159 74.334 216.359 74.9649 216.37 75.8459C216.427 77.1303 216.479 78.4148 216.513 79.6936C216.547 80.9723 216.564 82.2455 216.564 83.5186C216.564 84.7916 216.547 86.0648 216.513 87.3379C216.479 88.6109 216.427 89.8954 216.37 91.1912C216.359 92.0836 216.159 92.7258 215.777 93.1123Z" fill="black"/>
<path fill-rule="evenodd" clip-rule="evenodd" d="M225.029 69.418V97.6424H230.343V88.1166H231.901L234.595 97.6424H240.229L236.901 87.2356C237.884 86.7185 238.602 85.974 239.07 84.9963C239.538 84.0188 239.795 82.7685 239.84 81.2396C239.864 80.5803 239.881 80.0062 239.887 79.5118C239.892 79.0173 239.892 78.5229 239.887 78.0284C239.881 77.534 239.864 76.96 239.84 76.3007C239.756 73.8397 239.127 72.0779 237.952 71.015C236.776 69.9522 234.864 69.418 232.221 69.418H225.029ZM232.221 83.4618H230.343V74.0841H232.221C232.963 74.0841 233.528 74.2489 233.905 74.5842C234.287 74.9196 234.493 75.397 234.527 76.0222C234.561 76.5962 234.584 77.1986 234.595 77.8295C234.607 78.4604 234.607 79.0856 234.595 79.7165C234.584 80.3473 234.561 80.9498 234.527 81.5238C234.487 82.1319 234.282 82.6093 233.905 82.9504C233.528 83.2913 232.963 83.4618 232.221 83.4618Z" fill="black"/>
<path d="M245.366 97.6424V88.6451H244.801L240.053 69.418H245.475L246.999 76.2609L247.53 84.5531H248.523L249.054 76.2609L250.578 69.418H256L251.217 88.6451H250.686V97.6424H245.372H245.366Z" fill="black"/>
<path d="M191.911 0.352051H188.515V5.35918H191.911V0.352051Z" fill="black"/>
<path d="M195.308 0.352051H191.911V10.3606H195.308V0.352051Z" fill="black"/>
</svg>
